# xmcd
#
# Track frame offsets: 
#        150
#        14933
#        31321
#        43569
#        70487
#        84220
#        105805
#        120970
#        141018
#        152358
#        187788
#        210431
#
# Disc length: 3164 seconds
#
# Revision: 0
# Processed by: cddbd v1.5.2PL0 Copyright (c) Steve Scherf et al.
# Submitted via: ExactAudioCopyFreeDBPlugin 1.0
#
DISCID=890c5a0c
DTITLE=Neil Young and The International Harvesters - A Treasure
DYEAR=1985
DGENRE=Country Rock
TTITLE0=Amber Jean
TTITLE1=Are You Ready For The Country?
TTITLE2=It Might Have Been
TTITLE3=Bound For Glory
TTITLE4=Let Your Fingers Do The Walking
TTITLE5=Flying On The Ground Is Wrong
TTITLE6=Motor City
TTITLE7=Soul Of A Woman
TTITLE8=Get Back To The Country
TTITLE9=Southern Pacific
TTITLE10=Nothing Is Perfect
TTITLE11=Grey Riders
EXTD=
EXTT0=
EXTT1=
EXTT2=
EXTT3=
EXTT4=
EXTT5=
EXTT6=
EXTT7=
EXTT8=
EXTT9=
EXTT10=
EXTT11=
PLAYORDER=
